<svg width="100%" height="100%" viewBox="0 0 220 35" version="1.1" xmlns="http://www.w3.org/2000/svg" style="fill-rule:evenodd;clip-rule:evenodd;stroke-linejoin:round;stroke-miterlimit:2">
  <g transform="matrix(.987946 0 0 .838202 3.09832 5.64046)">
    <rect x="-3.136" y="-6.729" width="222.547" height="41.689" fill="none"/>
    <g transform="matrix(1.52235 0 0 1.79431 -16.0446 -17.5652)" fill="#fff">
      <g transform="matrix(1.11035 0 0 1.11035 -23.4008 -8.052)">
        <path d="M56.64 33h2.32v-5.8h5.28V33h2.32V19.92h-2.32v5.26h-5.28v-5.26h-2.32V33Zm13.049-2.52c0 1.7.6 2.76 2.24 2.76.54 0 .94-.08 1.22-.2l-.3-1.72c-.18.04-.26.04-.36.04-.24 0-.5-.2-.5-.76V18.88h-2.3v11.6ZM75.137 33h2.3v-9.82h-2.3V33Zm3.76-14.38h-2.28l-1.8 2.92h1.72l2.36-2.92Zm.909 9.48c0 3.24 1.58 5.14 4.04 5.14 1.06 0 2.06-.58 2.78-1.3h.08l.16 1.06h1.9V18.88h-2.3v3.56l.08 1.58c-.76-.66-1.46-1.08-2.58-1.08-2.14 0-4.16 1.96-4.16 5.16Zm2.38-.02c0-2.06 1.02-3.24 2.28-3.24.66 0 1.32.22 2 .82v4.58c-.66.76-1.3 1.1-2.06 1.1-1.42 0-2.22-1.14-2.22-3.26Zm9.108 2.28c0 1.72 1.2 2.88 2.92 2.88 1.16 0 2.16-.58 3.04-1.32h.06l.18 1.08h1.88v-5.82c0-2.74-1.2-4.24-3.66-4.24-1.56 0-2.94.6-4.02 1.28l.84 1.54c.86-.52 1.78-.96 2.76-.96 1.32 0 1.76.88 1.78 1.92-4.02.44-5.78 1.54-5.78 3.64Zm2.24-.18c0-.98.88-1.68 3.54-2.02v2.2c-.72.68-1.34 1.08-2.14 1.08-.82 0-1.4-.38-1.4-1.26Zm8.029-2.08c0 3.26 2.06 5.14 4.74 5.14 1.12 0 2.3-.44 3.22-1.26l-.96-1.46c-.54.44-1.22.84-2.02.84-1.54 0-2.62-1.3-2.62-3.26 0-1.98 1.1-3.28 2.68-3.28.62 0 1.14.26 1.66.72l1.1-1.46c-.66-.64-1.62-1.14-2.88-1.14-2.62 0-4.92 1.88-4.92 5.16Zm3.94-6.56h1.86l1.9-2.92h-1.58l-1.2 1.7h-.08l-1.2-1.7h-1.6l1.9 2.92Z"/>
      </g>
      <g transform="matrix(1.11035 0 0 1.11035 -23.4008 -7.99649)">
        <path d="M115.42 31.86c1 .82 2.5 1.38 3.8 1.38 2.66 0 4.08-1.4 4.08-3.2 0-1.82-1.42-2.52-2.68-2.98-1.02-.38-1.94-.62-1.94-1.26 0-.5.36-.78 1.12-.78.7 0 1.38.32 2.1.84l1.32-1.76c-.86-.64-1.98-1.26-3.5-1.26-2.3 0-3.8 1.26-3.8 3.1 0 1.64 1.42 2.46 2.62 2.92 1.02.4 2.02.7 2.02 1.36 0 .52-.38.84-1.26.84-.84 0-1.66-.36-2.56-1.04l-1.32 1.84Zm10.169-2.46c0 2.3.96 3.84 3.42 3.84.96 0 1.68-.2 2.2-.36l-.46-2.14c-.26.1-.62.2-.94.2-.78 0-1.28-.46-1.28-1.58v-3.98h2.38v-2.3h-2.38v-2.64h-2.44l-.34 2.64-1.52.12v2.18h1.36v4.02Zm6.688.84c0 1.68 1.14 3 2.94 3 1.12 0 2.06-.52 2.9-1.26h.06l.22 1.02h2.4v-5.68c0-3.04-1.4-4.48-3.94-4.48-1.56 0-2.98.54-4.24 1.3l1.04 1.94c.96-.56 1.8-.9 2.64-.9 1.06 0 1.5.56 1.56 1.44-3.92.4-5.58 1.54-5.58 3.62Zm2.8-.22c0-.76.68-1.36 2.78-1.64v1.74c-.52.52-.96.84-1.64.84-.7 0-1.14-.3-1.14-.94Zm4.86-11.5h-2.84l-1.78 3h2.14l2.48-3Zm3.809 10.88c0 2.3.96 3.84 3.42 3.84.96 0 1.68-.2 2.2-.36l-.46-2.14c-.26.1-.62.2-.94.2-.78 0-1.28-.46-1.28-1.58v-3.98h2.38v-2.3h-2.38v-2.64h-2.44l-.34 2.64-1.52.12v2.18h1.36v4.02Zm7.148-.16c0 2.48.92 4 3.08 4 1.36 0 2.3-.62 3.12-1.62h.08l.2 1.38h2.4v-9.92h-2.94v6.56c-.56.78-1.02 1.1-1.76 1.1-.84 0-1.24-.46-1.24-1.88v-5.78h-2.94v6.16Z"/>
      </g>
    </g>
    <g transform="matrix(.804059 0 0 .947703 -2.42467 -6.62185)">
      <path d="M34.793 43V25.814c0-6.56-5.392-11.258-11.977-11.258h-.093c-6.585 0-12.252 4.698-12.252 11.258V43h24.322Z" fill="#fff"/>
      <path d="M30.678 27.943c-1.523-.365-4.133-.48-5.946 0-1.813.48-2.061 2.971 0 2.971s7.469-2.606 5.946-2.971ZM14.6 27.943c1.523-.365 4.133-.48 5.946 0 1.813.48 2.06 2.971 0 2.971s-7.469-2.606-5.946-2.971Z"/>
      <path d="M23.134.789a1.141 1.141 0 0 0-1.497 0L.745 19.339c-.412.365-.5 1.029-.188 1.497l.886 1.328c.308.462.894.539 1.307.175l19.632-17.306 19.859 17.306c.418.365 1.003.293 1.315-.175l.887-1.328c.307-.462.22-1.132-.196-1.497L23.134.789Z" fill="#fff"/>
    </g>
  </g>
</svg>
